<?xml version="1.0" standalone="no"?>
<!DOCTYPE svg PUBLIC "-//W3C//DTD SVG 1.0//EN" "http://www.w3.org/TR/2001/REC-SVG-20010904/DTD/svg10.dtd">
<svg xmlns="http://www.w3.org/2000/svg" xmlns:xlink="http://www.w3.org/1999/xlink" id="body_1" width="512" height="512" preserveAspectRatio="xMidYMin slice" style="width: 50%; padding-bottom: 92%; height: 1px; overflow: visible">

<g transform="matrix(1 0 0 1 0 0)">
	<g>
	</g>
    <path d="M474.419 25.938L455.055 20.992L405.432 76.052L404.42902 84.316L254.36201 239.974C 254.36201 239.974 225.69002 273.837 211.67201 261.314C 211.67201 261.314 199.44601 255.396 197.60202 237.69C 197.60202 237.69 177.82802 214.292 163.83002 241.048C 163.83002 241.048 156.46701 267.836 154.02002 270.478C 154.02002 270.478 151.56203 282.274 123.82202 286.36C 123.82202 286.36 81.56102 291.56198 56.904022 311.97998C 56.904022 311.97998 13.896023 352.64297 30.669022 400.86298C 30.669022 400.86298 56.50402 464.96597 112.97802 487.18597C 112.97802 487.18597 190.19803 524.542 229.57101 450.40396C 229.57101 450.40396 243.057 426.84195 246.50801 377.34094C 246.50801 377.34094 248.18701 361.16193 274.914 355.53995C 274.914 355.53995 310.252 342.00195 308.214 308.83594C 308.214 308.83594 304.026 287.07593 285.327 267.15894L285.327 267.15894L289.331 263.49295L284.744 258.58795L280.146 263.49295L278.19 261.64996L421.857 103.66797L429.434 102.80797L485.19098 44.89097L474.41898 25.936968L474.419 25.938zM135.045 433.92C 113.315 433.92 95.723 416.338 95.723 394.61902C 95.723 372.90002 113.326004 355.277 135.045 355.277C 156.754 355.277 174.346 372.9 174.346 394.61902C 174.346 416.33804 156.75299 433.92 135.045 433.92z" stroke="none" fill="#000000" fill-rule="nonzero" />
    <path d="M404.521 68.014C 407.879 68.117 410.706 65.638 410.77798 62.454C 410.90097 59.269997 408.3 56.616997 404.94098 56.495C 401.623 56.350998 398.79697 58.85 398.684 62.035C 398.581 65.24 401.203 67.872 404.521 68.015L404.521 68.015L404.521 68.014z" stroke="none" fill="#000000" fill-rule="nonzero" />
    <path d="M416.822 43.022C 420.162 43.142998 422.776 45.822 422.66 49.003C 422.544 52.184998 419.742 54.666 416.403 54.544C 413.06302 54.423 410.449 51.744 410.565 48.563C 410.681 45.381 413.483 42.9 416.822 43.022z" stroke="none" fill="#000000" fill-rule="nonzero" />
    <path d="M443.32 15.411C 439.982 15.288 437.176 17.766 437.084 20.951C 436.96103 24.156 439.582 26.809 442.901 26.931C 446.259 27.032999 449.065 24.556 449.158 21.369999C 449.28098 18.195 446.68 15.553999 443.32098 15.409999L443.32098 15.409999L443.32 15.411z" stroke="none" fill="#000000" fill-rule="nonzero" />
    <path d="M429.328 28.371C 432.668 28.493 435.282 31.17 435.16602 34.353C 435.05002 37.535 432.24802 40.016 428.90903 39.894C 425.56903 39.773003 422.95502 37.094 423.071 33.913002C 423.187 30.731003 425.989 28.250002 429.328 28.372002L429.328 28.372002L429.328 28.371z" stroke="none" fill="#000000" fill-rule="nonzero" />
</g>
</svg>